<!-- icon666.com - MILLIONS OF FREE VECTOR ICONS --><svg id="Layer_1" enable-background="new 0 0 130 130" viewBox="0 0 130 130" xmlns="http://www.w3.org/2000/svg"><g><g><g><g><circle cx="65" cy="65" fill="#fad553" r="64"></circle></g></g></g><g><path d="m120.01719 57.25041h8.49902c-.07202-.59717-.13867-1.1958-.22729-1.78809h-8.27172c-.49146 0-.8938.40234-.8938.89404s.40233.89405.89379.89405z" fill="#fab941"></path><g><g><path d="m96.82594 41.8322 13.08476.00001c.49167 0 .89394.40228.89394.89395 0 .49167-.40228.89395-.89394.89395l-13.08476-.00001c-.49167 0-.89394-.40228-.89394-.89395-.00001-.49168.40227-.89395.89394-.89395z" fill="#fab941"></path></g></g><g><path d="m112.91068 41.8322 3.10785.00001c.49167 0 .89394.40228.89394.89395 0 .49167-.40228.89395-.89395.89394l-3.10785-.00001c-.49167 0-.89394-.40228-.89394-.89394-.00001-.49168.40227-.89395.89395-.89395z" fill="#fab941"></path></g><path d="m108.60825 103.23478 7.71973.00001c.43701-.58594.85425-1.18701 1.27148-1.78809l-8.99121-.00001c-.49121 0-.89355.40234-.89355.89404s.40233.89405.89355.89405z" fill="#fab941"></path><path d="m102.79008 101.44671h2.36105c.49168 0 .89395.40228.89395.89395 0 .49167-.40228.89394-.89395.89394h-2.36105c-.49168 0-.89395-.40228-.89395-.89394v-.00001c0-.49167.40228-.89394.89395-.89394z" fill="#fab941"></path><g fill="#fab941"><path d="m11.57628 82.86953-8.02954-.00049c.17383.59912.35083 1.19629.54175 1.78809l7.48779.00049c.4917 0 .89404-.4021.89404-.8938v-.00024c0-.49171-.40234-.89405-.89404-.89405z"></path><circle cx="14.321" cy="83.764" r=".894"></circle></g><path d="m11.68346 43.31142c.49414 0 .89502-.40039.89502-.89502 0-.49414-.40088-.89502-.89502-.89502l-6.21826.00025c-.23462.59424-.47119 1.18726-.68823 1.78979z" fill="#fab941"></path><g><path d="m23.29284 19.64346c.4917 0 .89404-.40234.89404-.89404 0-.49146-.40234-.8938-.89404-.8938h-1.56372c-.63623.58423-1.26294 1.17847-1.87524 1.78784z" fill="#fab941"></path><g><g><path d="m41.72094 19.64349-14.88587-.00001c-.49167 0-.89395-.40228-.89395-.89395 0-.49167.40228-.89395.89395-.89395l14.88587.00001c.49167 0 .89395.40228.89395.89395 0 .49168-.40228.89395-.89395.89395z" fill="#fab941"></path></g></g></g><g><path d="m16.30847 23.49111h5.33398c.4917 0 .89404-.40234.89404-.89404 0-.4917-.40234-.8938-.89404-.8938h-3.76221c-.53711.58423-1.05664 1.18384-1.57177 1.78784z" fill="#fab941"></path><g><path d="m24.64248 21.70324 5.77253.00001c.49164 0 .89389.40225.89389.8939 0 .49164-.40225.8939-.8939.8939l-5.77253-.00001c-.49164 0-.8939-.40226-.8939-.8939.00001-.49165.40226-.8939.89391-.8939z" fill="#fab941"></path></g></g><g><g><g><path d="m91.06758 16.23334-5.80801-.00001c-.49167 0-.89394-.40228-.89394-.89395 0-.49167.40228-.89395.89394-.89395l5.80801.00001c.49168 0 .89395.40228.89395.89395 0 .49167-.40227.89395-.89395.89395z" fill="#fab941"></path></g></g><path d="m94.60973 16.23332h11.8125c-.72021-.6123-1.45508-1.20728-2.20215-1.78784h-9.61035c-.4917 0-.89404.4021-.89404.8938s.40234.89404.89404.89404z" fill="#fab941"></path><g><path d="m82.25957 16.23334-3.10794-.00001c-.49168 0-.89395-.40228-.89395-.89395 0-.49167.40228-.89395.89395-.89395l3.10794.00001c.49168 0 .89395.40228.89395.89395 0 .49167-.40228.89395-.89395.89395z" fill="#fab941"></path></g></g><g fill="#fab941"><g><path d="m10.34488 66.43102c-.00006.49997-.40003.89984-.89004.89983-.50002-.00001-.90012-.39989-.90006-.89986.00006-.48996.40027-.89008.90029-.89006.49001 0 .88987.40013.88981.89009z"></path><path d="m12.4548 67.33082 12.59129.00021c.49431.00002.89503-.4007.89503-.895 0-.4943-.40071-.895-.895-.895h-12.59084c-.49023 0-.90039.40015-.90039.89014 0 .48974.41016.89965.89991.89965z"></path></g><path d="m99.01229 84.65266c-.00006.49997-.40002.89983-.89003.89983-.50002-.00001-.90012-.39989-.90006-.89986.00007-.48996.40028-.89007.90029-.89006.49001 0 .88987.40013.8898.89009z"></path><path d="m101.12222 85.55245 6.59129.00022c.49431.00002.89503-.4007.89503-.895v-.00001c0-.49429-.40071-.895-.895-.895h-6.59084c-.49023 0-.90039.40015-.90039.89014 0 .48974.41016.89965.89991.89965z"></path><g><path d="m66.78991 89.34824c-.00006.49997-.40002.89983-.89003.89983-.50002-.00001-.90012-.39989-.90006-.89986.00007-.48996.40028-.89007.90029-.89006.49 0 .88987.40013.8898.89009z"></path><path d="m68.89983 90.24804 12.59129.00022c.49431.00002.89503-.4007.89503-.895v-.00001c0-.49429-.40071-.895-.895-.895h-12.59083c-.49023 0-.90039.40015-.90039.89014 0 .48974.41016.89965.8999.89965z"></path></g><path d="m74.37763 118.86971c-.00007.49997-.40003.89984-.89004.89983-.50002-.00002-.90012-.3999-.90005-.89986.00006-.48996.40027-.89008.90028-.89006.49001 0 .88987.40013.88981.89009z"></path><path d="m76.48755 119.76951 6.59129.00021c.49431.00002.89503-.4007.89503-.895 0-.49429-.4007-.895-.895-.895h-6.59084c-.49023 0-.90039.40015-.90039.89014.00001.48974.41016.89965.89991.89965z"></path><g><path d="m61.09686 113.82378c-.00006.49996-.40003.89983-.89004.89983-.50002-.00002-.90012-.39989-.90006-.89986.00006-.48996.40028-.89008.90029-.89006.49001 0 .88987.40013.88981.89009z"></path><path d="m63.20678 114.72358 12.5913.00021c.49431.00002.89503-.4007.89503-.895 0-.49429-.4007-.895-.895-.895h-12.59085c-.49023 0-.90039.40015-.90039.89014 0 .48974.41016.89965.89991.89965z"></path></g><g><path d="m58.09674 27.6004c-.00006.49997-.40003.89984-.89003.89983-.50002-.00001-.90012-.39989-.90006-.89986.00006-.48996.40027-.89007.90029-.89006.49 0 .88987.40013.8898.89009z"></path><path d="m60.20666 28.5002 12.5913.00022c.49431.00002.89503-.4007.89503-.895 0-.4943-.40071-.895-.895-.895h-12.59084c-.49023 0-.90039.40014-.90039.89013 0 .48973.41016.89965.8999.89965z"></path></g></g></g><g><g><g><path d="m14.71222 104.56201c11.71924 14.87549 29.88111 24.43799 50.28784 24.43799 20.40649 0 38.5686-9.5625 50.2876-24.43799z" fill="#fab941"></path></g></g></g><g><path d="m52.99405 32.91351h-32.44568c-2.28521 0-4.13788 1.85242-4.13788 4.13763v16.06417c0 2.28521 1.85267 4.13789 4.13788 4.13789h19.42138l6.90969 6.90969c.8057.80569 2.18339.23496 2.18339-.90448v-6.00521h3.93122c2.28547 0 4.13789-1.85268 4.13789-4.13789v-16.06417c-.00001-2.28521-1.85243-4.13763-4.13789-4.13763z" fill="#fab941"></path><path d="m101.47131 40.51596h-68.49489c-2.28613 0-4.1394 1.85328-4.1394 4.1394v45.07863c0 2.28613 1.85327 4.1394 4.1394 4.1394h26.68452c-1.01918 2.61996-2.53053 5.27531-4.08331 7.77401l-1.40557-.00001c-.84902 0-1.63568.58044-1.77172 1.41849-.17337 1.06807.64605 1.99051 1.68111 1.99051l26.19349.00001c.84921 0 1.63631-.58027 1.77264-1.41846.17368-1.06789-.64611-1.99054-1.68129-1.99054h-1.49594c-1.55303-2.4987-3.06413-5.15405-4.08331-7.77401h26.68427c2.28613 0 4.1394-1.85327 4.1394-4.1394v-45.07863c0-2.28612-1.85327-4.1394-4.1394-4.1394z" fill="#fab941"></path><g><path d="m71.49564 87.21735c-.43913 5.11913 3.21065 11.17737 6.48966 16.29649-8.55098 0-17.10106 0-25.65203 0 3.27901-5.11913 6.92939-11.17737 6.48966-16.29649z" fill="#ededed"></path><path d="m103.54612 44.65548v45.07859c0 2.28613-1.85328 4.1394-4.1394 4.1394h-68.49486c-2.28613 0-4.1394-1.85328-4.1394-4.1394v-45.07859c0-2.28613 1.85327-4.1394 4.1394-4.1394h68.49486c2.28612 0 4.1394 1.85327 4.1394 4.1394z" fill="#fff"></path><path d="m103.54625 82.9361v-38.2806c0-2.28613-1.85327-4.1394-4.1394-4.1394h-68.49514c-2.28613 0-4.1394 1.85327-4.1394 4.1394v38.2806z" fill="#386384"></path><g fill="#4a749b"><path d="m77.57365 43.5752c0 .46112-.37744.8488-.84906.8488h-13.7727c-.47161 0-.8488-.38768-.8488-.8488 0-.47187.37719-.84905.8488-.84905h13.7727c.47162 0 .84906.37719.84906.84905z"></path><path d="m86.29398 43.5752c0 .46112-.37719.8488-.8488.8488h-5.3666c-.47161 0-.85954-.38768-.85954-.8488 0-.47187.38793-.84905.85954-.84905h5.3666c.47161 0 .8488.37719.8488.84905z"></path></g><path d="m80.00623 103.35191c0 .94141-.76317 1.70458-1.70458 1.70458h-26.28473c-.94142 0-1.70459-.76317-1.70459-1.70458 0-.94142.76317-1.70459 1.70459-1.70459h26.28473c.94141 0 1.70458.76316 1.70458 1.70459z" fill="#fff"></path><g><g><path d="m82.25765 60.95715c-.1507 0-.30314-.03811-.44171-.11866-.42439-.24424-.57162-.78642-.32738-1.21081l6.68803-11.61873c.24424-.42526.78815-.5699 1.21081-.32566.42439.24424.57162.78642.32738 1.21081l-6.68803 11.61873c-.16456.28495-.4625.44432-.7691.44432z" fill="#fff"></path></g><g><path d="m66.6488 67.6088c-.11086 0-.22172-.01992-.32912-.06322-.45557-.18275-.67556-.69894-.49368-1.15365l2.749-6.86471c.18188-.45557.70154-.67382 1.15192-.49368.45557.18275.67555.69894.49368 1.15364l-2.749 6.8647c-.13858.34645-.47117.55692-.8228.55692z" fill="#fff"></path></g><g><path d="m45.66493 79.0673c-.22692 0-.45384-.08661-.62706-.2607-.34644-.34644-.34644-.90854 0-1.25411l7.19036-7.17131c.16283-.19228.4036-.31526.67382-.31526.49022 0 .88689.38715.88689.87736 0 .23558-.09354.47982-.25983.64611l-7.23713 7.21895c-.17322.17235-.40013.25896-.62705.25896z" fill="#fff"></path></g><g><path d="m63.5447 70.18024h-6.43859c-.49022 0-.88689-.39668-.88689-.88689s.39667-.88689.88689-.88689h6.43859c.49022 0 .88688.39668.88688.88689s-.39667.88689-.88688.88689z" fill="#fff"></path></g><g><path d="m78.58712 61.98607c-.11433 0-.23038-.02165-.34297-.06929l-6.0142-2.51949c-.45211-.18881-.66344-.70847-.47462-1.16058.1888-.4521.70673-.66863 1.16058-.47462l6.01419 2.51949c.45211.18881.66344.70847.47462 1.16057-.14204.33952-.47116.54392-.8176.54392z" fill="#fff"></path></g><g><path d="m89.71743 52.74047-4.91844-2.53576c-.51189-.26392-.53745-.98643-.04546-1.28584l4.52534-2.75407c.4709-.28658 1.07832.02576 1.11917.5755l.39309 5.28982c.04273.57505-.56118.97459-1.0737.71035z" fill="#fff"></path></g><g><path d="m70.4146 60.97966c-1.75992 0-3.19071-1.43773-3.19071-3.20544 0-1.76684 1.43079-3.20457 3.19071-3.20457 1.76857 0 3.2063 1.43773 3.2063 3.20457 0 1.76772-1.43773 3.20544-3.2063 3.20544zm0-4.63623c-.78123 0-1.41695.64178-1.41695 1.4308s.63572 1.43166 1.41695 1.43166c.78988 0 1.43253-.64265 1.43253-1.43166 0-.80201-.62879-1.4308-1.43253-1.4308z" fill="#fff"></path></g><g><path d="m80.7593 65.03214c-1.75992 0-3.19071-1.43772-3.19071-3.20457 0-1.76771 1.43079-3.20544 3.19071-3.20544 1.76685 0 3.20457 1.43773 3.20457 3.20544 0 1.76685-1.43772 3.20457-3.20457 3.20457zm0-4.63623c-.78123 0-1.41694.64265-1.41694 1.43166s.63571 1.4308 1.41694 1.4308c.78815 0 1.43079-.64178 1.43079-1.4308 0-.80287-.62878-1.43166-1.43079-1.43166z" fill="#fff"></path></g><g><path d="m65.79309 72.09c-1.75992 0-3.19071-1.43773-3.19071-3.20544 0-1.76685 1.43079-3.20457 3.19071-3.20457 1.76685 0 3.20457 1.43772 3.20457 3.20457 0 1.76771-1.43772 3.20544-3.20457 3.20544zm0-4.63624c-.78122 0-1.41694.64178-1.41694 1.4308s.63572 1.43166 1.41694 1.43166c.78815 0 1.4308-.64265 1.4308-1.43166 0-.80201-.62879-1.4308-1.4308-1.4308z" fill="#fff"></path></g><g><path d="m54.82134 72.87988c-1.75992 0-3.19072-1.43772-3.19072-3.20544 0-1.76684 1.4308-3.20457 3.19072-3.20457 1.76684 0 3.20457 1.43773 3.20457 3.20457 0 1.76771-1.43773 3.20544-3.20457 3.20544zm0-4.63624c-.78122 0-1.41694.64178-1.41694 1.43079 0 .78902.63572 1.43166 1.41694 1.43166.78815 0 1.43079-.64264 1.43079-1.43166 0-.80199-.62879-1.43079-1.43079-1.43079z" fill="#fff"></path></g></g><g fill="#fff"><path d="m97.60179 77.74491c0 .69327-.56921 1.26248-1.27284 1.26248h-15.60562c-.69327 0-1.26248-.56921-1.26248-1.26248 0-.69328.56921-1.26249 1.26248-1.26249h15.60562c.70363 0 1.27284.56922 1.27284 1.26249z"></path><path d="m97.60179 71.84206c0 .69327-.56921 1.26248-1.27284 1.26248h-15.60562c-.69327 0-1.26248-.56921-1.26248-1.26248s.56921-1.26249 1.26248-1.26249h15.60562c.70363 0 1.27284.56923 1.27284 1.26249z"></path></g></g><path d="m57.13193 40.51142v12.6044c0 2.28613-1.85327 4.1394-4.1394 4.1394h-3.93248v5.99823c0 1.13947-1.37767 1.71012-2.18339.90439l-6.90262-6.90263h-13.20445v-12.6044c0-2.28613 1.85327-4.1394 4.1394-4.1394h26.22294z" fill="#2f4867"></path><g><path d="m55.96987 35.88915v16.06409c0 2.28524-1.85255 4.1378-4.1378 4.1378h-32.44585c-2.28524 0-4.1378-1.85255-4.1378-4.1378v-16.06409c0-2.28524 1.85256-4.1378 4.1378-4.1378h32.44585c2.28525 0 4.1378 1.85256 4.1378 4.1378z" fill="#fff"></path><path d="m47.90077 54.20433v7.89204c0 1.13948-1.37769 1.71014-2.18342.9044l-8.79645-8.79645h10.97987z" fill="#fff"></path><g fill="#f34b50"><path d="m23.31753 37.98229h2.08055v5.40658l5.28941-5.40658h2.5614l-4.74083 4.74151 5.07404 7.13631h-2.59527l-3.8929-5.67274-1.69586 1.68028v3.99246h-2.08055v-11.87782z"></path><path d="m34.71855 37.98229h5.24065c3.39308 0 4.0419 2.19636 4.0419 3.67685 0 1.4805-.64882 3.64299-4.0419 3.64299h-3.1601v4.55797h-2.08055zm2.08055 5.62331h3.04361c.93191 0 2.07919-.46596 2.07919-1.96338 0-1.5638-.94817-1.9627-2.04533-1.9627h-3.07747z"></path><path d="m45.82022 37.98229h2.08055v11.87782h-2.08055z"></path></g></g><path d="m67.39447 88.40491c0 1.23141-.99342 2.23518-2.23518 2.23518-1.23166 0-2.23518-1.00378-2.23518-2.23518 0-1.23167 1.00352-2.23544 2.23518-2.23544 1.24176 0 2.23518 1.00378 2.23518 2.23544z" fill="#ededed"></path></g></g></svg>